<?xml version="1.0" standalone="no" ?>
<!DOCTYPE svg PUBLIC "-//W3C//DTD SVG 1.1//EN" "http://www.w3.org/Graphics/SVG/1.1/DTD/svg11.dtd">
<svg width="9cm" height="9cm" viewBox="0 0 900 900" xmlns="http://www.w3.org/2000/svg" version="1.1">
	<line x1="421" y1="805" x2="195" y2="731" stroke-width="2" stroke="black" />
	<line x1="421" y1="805" x2="786" y2="539" stroke-width="2" stroke="black" />
	<line x1="646" y1="731" x2="195" y2="731" stroke-width="2" stroke="black" />
	<line x1="646" y1="731" x2="786" y2="302" stroke-width="2" stroke="black" />
	<line x1="786" y1="539" x2="195" y2="110" stroke-width="2" stroke="black" />
	<line x1="786" y1="539" x2="646" y2="110" stroke-width="2" stroke="black" />
	<line x1="786" y1="302" x2="421" y2="37" stroke-width="2" stroke="black" />
	<line x1="646" y1="110" x2="195" y2="110" stroke-width="2" stroke="black" />
	<line x1="421" y1="37" x2="55" y2="302" stroke-width="2" stroke="black" />
	<line x1="195" y1="110" x2="55" y2="539" stroke-width="2" stroke="black" />
	<line x1="55" y1="302" x2="195" y2="731" stroke-width="2" stroke="black" />
	<circle cx="421" cy="805" r="32" fill="rgb(255,0,0)"/>
	<text x="421" y="817" font-size="40" text-anchor="middle" fill="black">1</text>
	<circle cx="646" cy="731" r="32" fill="rgb(255,0,0)"/>
	<text x="646" y="743" font-size="40" text-anchor="middle" fill="black">2</text>
	<circle cx="786" cy="539" r="32" fill="rgb(255,0,0)"/>
	<text x="786" y="551" font-size="40" text-anchor="middle" fill="black">3</text>
	<circle cx="786" cy="302" r="32" fill="rgb(255,0,0)"/>
	<text x="786" y="314" font-size="40" text-anchor="middle" fill="black">4</text>
	<circle cx="646" cy="110" r="32" fill="rgb(255,0,0)"/>
	<text x="646" y="122" font-size="40" text-anchor="middle" fill="black">5</text>
	<circle cx="421" cy="37" r="32" fill="rgb(255,0,0)"/>
	<text x="421" y="49" font-size="40" text-anchor="middle" fill="black">6</text>
	<circle cx="195" cy="110" r="32" fill="rgb(255,0,0)"/>
	<text x="195" y="122" font-size="40" text-anchor="middle" fill="black">7</text>
	<circle cx="55" cy="302" r="32" fill="rgb(255,0,0)"/>
	<text x="55" y="314" font-size="40" text-anchor="middle" fill="black">8</text>
	<circle cx="55" cy="539" r="32" fill="rgb(255,0,0)"/>
	<text x="55" y="551" font-size="40" text-anchor="middle" fill="black">9</text>
	<circle cx="195" cy="731" r="32" fill="rgb(255,0,0)"/>
	<text x="195" y="743" font-size="40" text-anchor="middle" fill="black">10</text>
</svg>
