<?xml version="1.0" standalone="no" ?>
<!DOCTYPE svg PUBLIC "-//W3C//DTD SVG 1.1//EN" "http://www.w3.org/Graphics/SVG/1.1/DTD/svg11.dtd">
<svg width="15cm" height="16cm" viewBox="0 0 1500 1600" xmlns="http://www.w3.org/2000/svg" version="1.1">
	<line x1="440" y1="40" x2="600" y2="120" stroke-width="2" stroke="black" />
	<line x1="440" y1="40" x2="280" y2="440" stroke-width="2" stroke="black" />
	<line x1="1400" y1="1320" x2="600" y2="120" stroke-width="2" stroke="black" />
	<line x1="1400" y1="1320" x2="40" y2="1560" stroke-width="2" stroke="black" />
	<line x1="280" y1="440" x2="680" y2="1080" stroke-width="2" stroke="black" />
	<line x1="280" y1="440" x2="40" y2="760" stroke-width="2" stroke="black" />
	<line x1="40" y1="1560" x2="920" y2="1320" stroke-width="2" stroke="black" />
	<line x1="40" y1="760" x2="680" y2="1080" stroke-width="2" stroke="black" />
	<line x1="920" y1="1320" x2="920" y2="1560" stroke-width="2" stroke="black" />
	<line x1="680" y1="1080" x2="1160" y2="1000" stroke-width="2" stroke="black" />
	<line x1="920" y1="1560" x2="600" y2="120" stroke-width="2" stroke="black" />
	<circle cx="440" cy="40" r="32" fill="rgb(255,0,0)"/>
	<text x="440" y="52" font-size="40" text-anchor="middle" fill="black">1</text>
	<circle cx="1400" cy="1320" r="32" fill="rgb(255,0,0)"/>
	<text x="1400" y="1332" font-size="40" text-anchor="middle" fill="black">2</text>
	<circle cx="280" cy="440" r="32" fill="rgb(255,0,0)"/>
	<text x="280" y="452" font-size="40" text-anchor="middle" fill="black">3</text>
	<circle cx="40" cy="1560" r="32" fill="rgb(255,0,0)"/>
	<text x="40" y="1572" font-size="40" text-anchor="middle" fill="black">4</text>
	<circle cx="40" cy="760" r="32" fill="rgb(255,0,0)"/>
	<text x="40" y="772" font-size="40" text-anchor="middle" fill="black">5</text>
	<circle cx="920" cy="1320" r="32" fill="rgb(255,0,0)"/>
	<text x="920" y="1332" font-size="40" text-anchor="middle" fill="black">6</text>
	<circle cx="680" cy="1080" r="32" fill="rgb(255,0,0)"/>
	<text x="680" y="1092" font-size="40" text-anchor="middle" fill="black">7</text>
	<circle cx="920" cy="1560" r="32" fill="rgb(255,0,0)"/>
	<text x="920" y="1572" font-size="40" text-anchor="middle" fill="black">8</text>
	<circle cx="1160" cy="1000" r="32" fill="rgb(255,0,0)"/>
	<text x="1160" y="1012" font-size="40" text-anchor="middle" fill="black">9</text>
	<circle cx="600" cy="120" r="32" fill="rgb(255,0,0)"/>
	<text x="600" y="132" font-size="40" text-anchor="middle" fill="black">10</text>
</svg>
